<?xml version="1.0" encoding="utf-8"?>
<!-- Generator: Adobe Illustrator 19.2.1, SVG Export Plug-In . SVG Version: 6.00 Build 0)  -->
<svg version="1.1" id="layer" xmlns="http://www.w3.org/2000/svg" xmlns:xlink="http://www.w3.org/1999/xlink" x="0px" y="0px"
	 viewBox="0 0 652 652" style="enable-background:new 0 0 652 652;" xml:space="preserve">
<style type="text/css">
	.st0{fill:#726C68;}
</style>
<rect x="541.4" y="306.8" transform="matrix(0.4704 -0.8825 0.8825 0.4704 -20.665 687.9521)" class="st0" width="42.7" height="108.7"/>
<rect x="502" y="254.5" transform="matrix(0.9369 -0.3495 0.3495 0.9369 -61.3188 211.8556)" class="st0" width="108.7" height="42.7"/>
<path class="st0" d="M413.5,323.3v26.2H402v-24.6c0-5-3-8.2-7.5-8.2c-4.6,0-7.8,3.2-7.8,7.9v24.8h-11.5v-24.6c0-5-3-8.2-7.5-8.2
	c-4.6,0-7.8,3.2-7.8,8.2v24.6h-11.5v-42.3H359v3.8c2.8-2.9,6.9-4.7,11.9-4.7c5.7,0,9.9,2.2,12.5,6.1c3.2-3.7,8.1-6.1,14.1-6.1
	C407.7,306.3,413.5,313.1,413.5,323.3"/>
<path class="st0" d="M337.4,330.9c0,11.9-8.4,19.6-19.4,19.6c-11.2,0-19.5-7.7-19.5-19.6v-23.7H310v24.6c0,4.9,3.5,8.1,8,8.1
	c4.4,0,7.8-3.2,7.8-8.1v-24.6h11.5V330.9z"/>
<path class="st0" d="M287.8,324.4v25.1h-10.6v-4.1c-3,3.2-7.4,5.1-12.9,5.1c-9.2,0-14.6-5.5-14.6-12.6c0-7.7,6.2-12.3,16-12.3h10.6
	v-1.9c0-4.6-2.6-7.4-7.8-7.4c-4.5,0-7.7,2.1-11.2,5.8l-6-7.1c5-5.9,11-8.7,18.4-8.7C280.5,306.3,287.8,312.4,287.8,324.4
	 M276.3,333.7v-0.5h-9c-3.8,0-5.9,1.5-5.9,4.3c0,2.9,2.5,4.6,6.1,4.6C272.3,342.1,276.3,338.6,276.3,333.7"/>
<path class="st0" d="M243.3,328.4c0,12.7-8.5,22.1-20.5,22.1c-5.8,0-10.7-2.3-13.6-6.2v5.2h-10.6v-64h11.5v25.9c3-3.2,7.3-5,12.6-5
	C234.8,306.3,243.3,315.7,243.3,328.4 M231.6,328.3c0-7.2-5-11.6-10.9-11.6c-5.4,0-10.7,3.7-10.7,11.7c0,8.1,5.4,11.6,10.7,11.6
	C226.8,340,231.6,335.5,231.6,328.3"/>
<path class="st0" d="M139.1,332.2h-29.6c1.4,5.4,5.7,8.4,11.9,8.4c4.6,0,8.4-1.6,11.8-4.3l4.8,7.8c-4.8,4-10.4,6.3-16.9,6.3
	c-13.4,0-23.1-9.7-23.1-22.1c0-12.5,9.7-22.1,22.1-22.1c11.9,0,19.9,8.7,19.9,19.6C139.8,328.3,139.4,330.8,139.1,332.2
	 M109.4,324.1h19.2c-0.1-5.4-4.3-8.5-9.1-8.5C114.6,315.6,110.7,318.8,109.4,324.1"/>
<path class="st0" d="M90.4,291.9c0,4-3.3,7.1-7.3,7.1c-4.1,0-7.4-3.1-7.4-7.1c0-4.1,3.3-7.2,7.4-7.2
	C87.1,284.7,90.4,287.8,90.4,291.9 M88.8,349.5H77.3v-42.2h11.5C88.8,307.2,88.8,349.5,88.8,349.5z"/>
<polygon class="st0" points="56.5,349.5 32.4,320.1 32.4,349.5 20.8,349.5 20.8,293.2 32.4,293.2 32.4,319.3 53.9,293.2 67.6,293.2 
	46,319.7 70.4,349.5 "/>
<path class="st0" d="M187.6,323.3v26.2h-11.4v-24.7c0-4.9-3.2-8.2-7.8-8.2c-4.7,0-8,3.3-8,8.2v24.7h-11.5v-42.2h10.6v3.8
	c2.9-2.9,7.2-4.8,12.4-4.8C181.6,306.3,187.6,313.1,187.6,323.3"/>
</svg>
