<?xml version="1.0" encoding="UTF-8"?>
<svg width="1200pt" height="1200pt" version="1.1" viewBox="0 0 1200 1200" xmlns="http://www.w3.org/2000/svg">
 <path d="m760.18 1090.5-235.22-151.78c0.1875-2.3438-0.09375-4.7812-0.9375-7.1719l-16.031-48.094 101.39-168.98c6.0938-10.172 9.375-21.844 9.375-33.75v-99.516c0-10.359-8.3906-18.75-18.75-18.75s-18.75 8.3906-18.75 18.75v99.516c0 5.0625-1.4062 10.078-4.0312 14.438l-105.84 176.34c-2.8125 4.6875-3.4688 10.406-1.6875 15.562l6.75 20.297-42.75-27.562 89.578-197.16c0.75-1.7344 1.3125-3.5625 1.5469-5.4375l18.75-150c0.09375-0.75 0.14062-1.5469 0.14062-2.3438v-187.5c0-5.7656-2.625-11.156-7.125-14.719s-10.359-4.875-15.938-3.5625c-21.469 5.0625-82.781 18.281-108.19 18.281-19.594 0-49.172-16.781-77.438-37.547l72.891 18.188c5.6719 1.4062 11.672 0.09375 16.219-3.5625 0.65625-0.5625 67.781-53.531 141.74-67.547 0.375-0.09375 0.65625-0.1875 1.0312-0.23438 14.812 9.8438 32.625 15.656 51.75 15.656 51.703 0 93.75-42.047 93.75-93.75s-42.047-93.75-93.75-93.75c-51.703 0-93.75 42.047-93.75 93.75 0 16.969 4.5469 32.812 12.422 46.547-59.719 16.406-110.44 50.672-129.1 64.312l-70.641-17.672 18.234-95.953c1.9219-10.172-4.7344-19.969-14.906-21.938-10.172-1.9219-19.969 4.7344-21.938 14.906l-17.812 93.844-34.219-8.5312c-8.1562-2.0625-16.688 1.5938-20.859 8.9531-4.125 7.3125-2.9062 16.547 3.0469 22.5 3.8438 3.8438 19.453 19.172 40.688 36.656l-80.344 422.86-30.656-19.781c-8.7188-5.625-20.297-3.0938-25.922 5.625s-3.0938 20.297 5.625 25.922l43.406 28.031-1.9688 10.266-18.422-3.4688c-10.172-1.9219-19.969 4.7344-21.938 14.906-1.9219 10.172 4.7344 19.969 14.906 21.938l18.422 3.4688-7.0312 36.844c-1.9219 10.172 4.7344 19.969 14.906 21.938 1.1719 0.23438 2.3438 0.32813 3.5156 0.32813 8.8125 0 16.688-6.2812 18.375-15.281l7.0312-36.844 18.422 3.4688c1.1719 0.23437 2.3438 0.32812 3.5156 0.32812 8.8125 0 16.688-6.2812 18.375-15.281 1.9219-10.172-4.7344-19.969-14.906-21.938l-18.422-3.4688 86.391-454.6c29.062 20.109 61.875 37.266 89.203 37.266 23.578 0 66.938-8.3906 93.75-14.109v162.94l-18.281 146.02-30.844 67.875-34.5-22.219c-8.7188-5.625-20.297-3.0938-25.922 5.625s-3.0938 20.297 5.625 25.922l39.141 25.219-39.562 87.094-91.734-59.156c-8.7188-5.625-20.297-3.0938-25.922 5.625s-3.0938 20.297 5.625 25.922l450 290.34c3.1406 2.0625 6.6562 3 10.125 3 6.1875 0 12.188-3 15.75-8.5781 5.625-8.7188 3.0938-20.297-5.625-25.922zm-141.42-978c31.031 0 56.25 25.219 56.25 56.25s-25.219 56.25-56.25 56.25-56.25-25.219-56.25-56.25 25.219-56.25 56.25-56.25z"/>
 <path d="m1049.7 784.03c-1.9219-10.172-11.719-16.875-21.938-14.906l-18.422 3.4688-92.109-484.78c6.75-5.3438 11.531-9.2344 13.547-10.922 6.6562-5.5312 8.625-14.906 4.8281-22.688-3.8438-7.7812-12.469-11.906-20.906-10.031l-5.5312 1.2188-18.844-99.141c-1.9688-10.172-11.719-16.875-21.938-14.906-10.172 1.9688-16.875 11.719-14.906 21.938l19.078 100.27-116.95 25.969c-8.4375-7.5938-23.25-20.062-42.094-32.625-8.625-5.7656-20.25-3.4219-25.969 5.2031-5.7656 8.625-3.4219 20.25 5.2031 25.969 26.062 17.391 43.875 34.969 44.016 35.156 4.5 4.5 11.062 6.4688 17.344 5.0625l80.953-18c-32.438 20.625-65.25 37.219-85.031 37.219s-55.969-12.562-67.969-17.391c-5.8125-2.3438-12.328-1.6406-17.531 1.875-5.1562 3.4688-8.25 9.2812-8.25 15.562v168.74c0 1.8281 0.28125 3.6562 0.79688 5.3906l52.734 175.78c1.4062 4.5938 1.5469 9.4688 0.51562 14.156l-34.875 156.84c-0.9375 4.2188-0.375 8.625 1.5 12.469l6.375 12.844-43.875-28.312 35.016-157.6c2.25-10.078-4.125-20.156-14.25-22.359-10.078-2.25-20.156 4.125-22.359 14.25l-32.016 144.05-14.531-9.375c-8.7188-5.625-20.297-3.0938-25.922 5.625s-3.0938 20.297 5.625 25.922l412.5 266.16c3.1406 2.0625 6.6562 3 10.125 3 6.1875 0 12.188-3 15.75-8.5781 5.625-8.7188 3.0938-20.297-5.625-25.922l-258.66-166.87-31.781-63.562 33.375-150.32c2.4375-10.922 2.0156-22.359-1.2188-33.094l-51.938-173.16v-139.45c16.875 5.3438 38.812 10.969 56.25 10.969 38.062 0 94.031-34.031 133.78-62.203l88.688 466.78-18.422 3.4688c-10.172 1.9688-16.875 11.719-14.906 21.938 1.6875 9 9.5625 15.281 18.375 15.281 1.1719 0 2.3438-0.09375 3.5156-0.32812l18.422-3.4688 7.0312 36.844c1.6875 9 9.5625 15.281 18.375 15.281 1.1719 0 2.3438-0.09375 3.5156-0.32812 10.172-1.9688 16.875-11.719 14.906-21.938l-7.0312-36.844 18.422-3.4688c10.172-1.9688 16.875-11.719 14.906-21.938z"/>
</svg>
