<?xml version="1.0" encoding="UTF-8" standalone="no"?>
<!-- Created with Inkscape (http://www.inkscape.org/) -->
<svg
   xmlns:svg="http://www.w3.org/2000/svg"
   xmlns="http://www.w3.org/2000/svg"
   version="1.0"
   width="446"
   height="106"
   viewBox="-0.3 -0.607 446 106"
   id="svg2"
   xml:space="preserve">
	<defs
   id="defs4">
	</defs>
	<g
   id="g6">
		<rect
   width="23.367001"
   height="23.367001"
   x="421.91901"
   y="79.535004"
   style="fill:#b50039"
   id="rect8" /> 
		<path
   d="M 62.361,45.779 L 62.361,31.518 L 0,31.518 L 0,45.78 L 17.52,45.78 L 17.52,81.985 C 17.52,95.974 24.581,103.949 38.959,103.949 C 44.452,103.949 51.252,102.903 57.267,100.808 L 57.135,87.999 C 54.519,88.913 49.682,90.088 44.06,90.088 C 35.561,90.088 35.693,84.601 35.693,77.93 L 35.693,45.78 L 62.361,45.78 M 151.248,102.902 L 169.157,102.902 L 169.157,0 L 151.248,0 L 151.248,102.902 z M 225.768,84.861 C 222.891,88.652 218.579,91.136 212.956,91.136 C 206.288,91.136 201.187,88.52 201.187,82.508 C 201.187,71.654 213.477,71.264 221.712,71.264 L 229.69,71.264 C 229.69,76.755 228.773,80.807 225.768,84.861 M 215.962,30.604 C 208.116,30.604 196.348,33.085 191.385,35.309 L 191.385,47.73 C 196.219,46.16 205.896,43.807 213.739,43.807 C 224.591,43.807 229.691,47.862 229.691,60.281 L 219.49,60.281 C 211.779,60.281 202.759,60.934 195.698,64.333 C 188.769,67.734 183.672,73.096 183.672,83.552 C 183.672,97.02 195.827,104.602 208.378,104.602 C 216.745,104.602 225.9,100.158 230.213,92.441 L 230.474,92.441 L 230.474,102.903 L 246.426,102.903 L 246.426,60.413 C 246.425,39.495 237.533,30.604 215.962,30.604 z M 329.675,102.902 L 329.675,58.318 C 329.675,42.369 322.483,30.603 305.616,30.603 C 296.074,30.603 288.228,33.741 282.477,41.847 L 282.216,41.847 L 282.216,32.302 L 265.611,32.302 L 265.611,102.902 L 283.131,102.902 L 283.131,68.388 C 283.131,59.367 286.008,44.854 299.341,44.854 C 311.11,44.854 311.238,56.623 311.238,65.25 L 311.238,102.902 L 329.675,102.902 M 412.5,102.902 L 387.006,65.64 L 409.234,32.303 L 390.671,32.303 L 376.858,55.374 L 362.825,32.303 L 341.122,32.303 L 364.264,65.904 L 339.684,102.903 L 358.903,102.903 L 374.665,77.151 L 390.541,102.903 L 412.5,102.903"
   style="fill:#2c3541"
   id="path10" />
		<path
   d="M 111.914,84.861 C 109.037,88.652 104.593,91.136 98.971,91.136 C 92.435,91.136 87.334,88.52 87.334,82.508 C 87.334,71.654 99.492,71.264 107.73,71.264 L 115.705,71.264 C 115.705,76.755 114.923,80.807 111.914,84.861 M 101.977,30.604 C 94.266,30.604 82.498,33.085 77.4,35.309 L 77.4,47.73 C 82.237,46.16 92.043,43.807 99.885,43.807 C 110.605,43.807 115.705,47.862 115.705,60.281 L 105.636,60.281 C 97.925,60.281 88.905,60.934 81.844,64.333 C 74.783,67.734 69.815,73.096 69.815,83.552 C 69.815,97.02 81.973,104.602 94.527,104.602 C 102.891,104.602 112.047,100.158 116.359,92.441 L 116.62,92.441 L 116.491,102.903 L 132.44,102.903 L 132.44,60.413 C 132.439,39.495 123.551,30.604 101.977,30.604 z "
   style="fill:#2c3541"
   id="path12" />
	</g>
</svg>