<?xml version="1.0" encoding="UTF-8"?>
<svg width="1200pt" height="1200pt" version="1.1" viewBox="0 0 1200 1200" xmlns="http://www.w3.org/2000/svg">
 <path d="m1152.4 467.63c-14.156-232.92-208.26-421.74-450-421.74-240 0-435.89 187.08-450 421.78-15.891 264.71 195.89 478.22 448.22 478.22 261.19 0 467.63-218.81 451.78-478.26zm-420-232.92 112.92-82.922c10.594-7.0781 14.109-21.188 10.594-31.781l-3.5156-12.375c67.078 26.484 127.08 68.812 172.92 125.29h-12.375c-12.375 0-22.922 8.8125-28.219 19.406l-42.328 135.89-107.62 35.297-102.38-74.109zm-178.26-125.29-3.5156 12.375c-3.5156 12.375 0 24.703 10.594 31.781l112.92 82.922v112.92l-102.33 74.109-107.62-35.297-42.375-134.11c-3.5156-12.375-15.891-19.406-28.219-19.406h-12.375c45.891-56.484 104.11-100.59 172.92-125.29zm-26.484 580.6h-139.4c-26.484 0-30 28.219-31.781 31.781-40.594-61.781-61.781-130.6-67.078-204.71l10.594 7.0781c10.594 7.0781 22.922 7.0781 33.516 0l112.92-82.922 107.62 35.297 38.812 120zm271.78 197.63 10.594 7.0781c-70.594 19.406-146.48 19.406-215.29 0l10.594-7.0781c10.594-7.0781 14.109-21.188 10.594-31.781l-42.375-132.32 67.078-91.781h125.29l67.078 91.781-44.109 132.37c-3.5625 12.328 1.7344 24.703 10.547 31.734zm250.6-165.84-3.5156-12.375c-3.5156-12.375-14.109-19.406-26.484-19.406h-139.4l-68.812-93.516 38.812-118.22 109.41-35.297 112.92 82.922c5.2969 3.5156 10.594 5.2969 17.625 5.2969 7.0781 0 12.375-1.7812 17.625-5.2969l10.594-7.0781c-5.25 70.594-28.172 141.19-68.766 202.97z"/>
 <path d="m77.625 840 58.219-58.219c7.0781-7.0781 7.0781-17.625 0-24.703s-17.625-7.0781-24.703 0l-58.219 58.219c-7.0781 7.0781-7.0781 17.625 0 24.703s17.672 7.0781 24.703 0z"/>
 <path d="m181.78 735.89 45.891-45.891c7.0781-7.0781 7.0781-17.625 0-24.703s-17.625-7.0781-24.703 0l-45.891 45.891c-7.0781 7.0781-7.0781 17.625 0 24.703 5.2969 7.0312 17.625 7.0312 24.703 0z"/>
 <path d="m86.484 998.81 19.406-19.406c7.0781-7.0781 7.0781-17.625 0-24.703s-17.625-7.0781-24.703 0l-19.406 19.406c-7.0781 7.0781-7.0781 17.625 0 24.703 5.2969 7.0781 17.625 7.0781 24.703 0z"/>
 <path d="m210 824.11-93.516 93.516c-7.0781 7.0781-7.0781 17.625 0 24.703s17.625 7.0781 24.703 0l93.516-93.516c7.0781-7.0781 7.0781-17.625 0-24.703-5.2969-7.0312-17.625-7.0312-24.703 0z"/>
 <path d="m77.625 677.63 19.406-19.406c7.0781-7.0781 7.0781-17.625 0-24.703s-17.625-7.0781-24.703 0l-19.406 19.406c-7.0781 7.0781-7.0781 17.625 0 24.703s17.672 7.0781 24.703 0z"/>
 <path d="m132.37 622.92 93.516-93.516c7.0781-7.0781 7.0781-17.625 0-24.703s-17.625-7.0781-24.703 0l-93.516 93.516c-7.0781 7.0781-7.0781 17.625 0 24.703 7.0312 7.0781 17.625 7.0781 24.703 0z"/>
 <path d="m582.37 1104.7-19.406 19.406c-7.0781 7.0781-7.0781 17.625 0 24.703s17.625 7.0781 24.703 0l19.406-19.406c7.0781-7.0781 7.0781-17.625 0-24.703s-17.672-7.0781-24.703 0z"/>
 <path d="m712.92 974.11-95.297 95.297c-7.0781 7.0781-7.0781 17.625 0 24.703s17.625 7.0781 24.703 0l93.516-93.516c7.0781-7.0781 7.0781-17.625 0-24.703-7.0312-7.0781-17.625-8.8125-22.922-1.7812z"/>
 <path d="m511.78 974.11-150 150c-7.0781 7.0781-7.0781 17.625 0 24.703s17.625 7.0781 24.703 0l150-150c7.0781-7.0781 7.0781-17.625 0-24.703-7.0781-7.0312-19.406-7.0312-24.703 0z"/>
 <path d="m284.11 1034.1-81.188 81.188c-7.0781 7.0781-7.0781 17.625 0 24.703s17.625 7.0781 24.703 0l81.188-81.188c7.0781-7.0781 7.0781-17.625 0-24.703-7.0312-7.0312-17.625-7.0312-24.703 0z"/>
 <path d="m377.63 965.29c-7.0781-7.0781-17.625-7.0781-24.703 0l-30 30c-7.0781 7.0781-7.0781 17.625 0 24.703s17.625 7.0781 24.703 0l30-30c7.0781-5.2969 7.0781-17.625 0-24.703z"/>
 <path d="m250.6 951.19c-7.0781-7.0781-17.625-7.0781-24.703 0l-150 150c-7.0781 7.0781-7.0781 17.625 0 24.703s17.625 7.0781 24.703 0l150-150c7.0312-5.2969 7.0312-17.672 0-24.703z"/>
</svg>
