<?xml version="1.0" encoding="utf-8"?>
<!-- Generator: Adobe Illustrator 19.2.1, SVG Export Plug-In . SVG Version: 6.00 Build 0)  -->
<svg version="1.1" id="layer" xmlns="http://www.w3.org/2000/svg" xmlns:xlink="http://www.w3.org/1999/xlink" x="0px" y="0px"
	 viewBox="0 0 652 652" style="enable-background:new 0 0 652 652;" xml:space="preserve">
<style type="text/css">
	.st0{fill:#002147;}
	.st1{fill:#FFFFFF;}
</style>
<path class="st0" d="M20.5,182.1h279.8v279.8H20.5V182.1z"/>
<g>
	<path class="st1" d="M81.8,414.7c0.2,10.1-7.9,18.4-18,18.5c-0.2,0-0.5,0-0.7,0c-10.1,0-18.4-8.2-18.4-18.3
		c0-10.1,8.2-18.4,18.3-18.4c0,0,0,0,0,0c10-0.3,18.4,7.6,18.7,17.6C81.8,414.3,81.8,414.5,81.8,414.7z M75.9,414.9
		c0-9.7-4.7-16.6-12.7-16.6c-8.7,0-12.7,8.1-12.7,16.6c0,9.8,4.7,16.6,12.7,16.6C71.9,431.4,75.9,423.4,75.9,414.9z M195.7,414.7
		c0.3,10.3-7.9,18.9-18.2,19.1s-18.9-7.9-19.1-18.2c-0.3-10.3,7.9-18.9,18.2-19.1c0.2,0,0.3,0,0.5,0c10.1-0.2,18.4,7.8,18.6,17.8
		C195.7,414.4,195.7,414.6,195.7,414.7z M189.8,414.9c0-9.7-4.7-16.6-12.8-16.6c-8.7,0-12.7,8.1-12.7,16.6c0,9.8,4.7,16.6,12.7,16.6
		C185.7,431.4,189.8,423.4,189.8,414.9z M210.1,415.1h4.4c6.7,0,8.1-4.3,8.1-8.3c0.1-3.1-1.7-6.1-4.5-7.3c-1.7-0.6-3.6-0.8-5.4-0.7
		H210v16.3H210.1z M218.2,420.8c-2.1-3-2.9-4-5.4-4h-2.7v12c0,1,0.4,1.5,1.5,1.7l4,0.9v1.3h-15.9v-1.3l3.7-0.9
		c1.1-0.3,1.5-0.7,1.5-1.7v-27.8c0-1-0.4-1.4-1.5-1.7l-3.7-0.9v-1.3h15.5c2.5-0.1,5,0.2,7.4,1c3.6,1.4,5.9,4.7,6,8.6
		c0,4.4-3.2,8.1-8.7,9.3v0.2c1.1,0.5,1.7,1.2,5.5,6.2l4.8,6.4c0.6,0.9,1.6,1.6,2.7,1.8l3.6,0.8v1.3h-8.6c-1,0-1.5-0.3-2.4-1.5
		l-7.4-10.4L218.2,420.8z M148.7,409.2h1.5v11.8h-1.5l-0.9-3.6c-0.2-1.1-1.2-1.9-2.3-1.7H137v13c0,1,0.4,1.5,1.5,1.7l4.1,0.9v1.3
		h-15.9v-1.3l3.7-0.9c1.1-0.3,1.5-0.7,1.5-1.7v-27.8c0-1-0.4-1.4-1.5-1.7l-3.7-0.9v-1.3h26.9v8.9H152l-1.7-5.4
		c-0.4-1.4-1-1.9-2.2-1.9H137V414h8.6c1.1,0.1,2.1-0.7,2.3-1.8L148.7,409.2L148.7,409.2z M239.4,432.6v-1.3l3.7-0.9
		c1.1-0.3,1.5-0.7,1.5-1.7v-27.8c0-1-0.4-1.4-1.5-1.7l-3.7-0.9v-1.3h16.7c3.6-0.2,7.1,0.5,10.5,1.8c6.2,3,10,9.3,9.8,16.1
		c0.5,6.3-2.8,12.3-8.3,15.4c-3.6,1.7-7.6,2.4-11.7,2.2H239.4z M249.8,398.8v30.6c0,1.3,0.3,1.6,1.6,1.6h4.4
		c3.3,0.3,6.5-0.5,9.4-2.2c3.7-2.7,5.4-7.5,5.4-13.6s-1.7-11.9-6.6-14.8c-2.8-1.3-5.8-1.8-8.9-1.6H249.8z M95.8,431.3v1.3H83.2v-1.3
		l3.1-0.8c1-0.2,2-0.8,2.7-1.6l10.8-13.5l-10.8-14.4c-0.6-0.9-1.6-1.6-2.7-1.8l-3-0.8v-1.3H99v1.3l-3.1,0.5
		c-1.2,0.2-0.9,0.7-0.3,1.5l8.1,11.5h0.2l8.2-11.5c0.6-0.8,0.8-1.1-0.3-1.4l-3.1-0.8v-1.3H121v1.3l-3.2,0.8c-1,0.2-2,0.8-2.7,1.6
		l-10.3,12.9l11.4,15.1c0.6,0.9,1.6,1.5,2.7,1.8l3,0.8v1.3h-15.6v-1.3l3.4-0.7c1.2-0.2,1-0.6,0.4-1.4l-9-12.2l-8.8,12.2
		c-0.6,0.8-0.8,1.1,0.3,1.4L95.8,431.3L95.8,431.3z M58.4,380.4c-1.2,1.1-2.9,1.7-4.5,1.6c-1.7,0.1-3.3-0.6-4.5-1.7
		c-1.3-1.6-1.8-3.6-1.5-5.6v-9.9h2v10.6c-0.2,1.3,0.2,2.7,1,3.7c0.9,0.8,2,1.2,3.1,1.1c1.1,0,2.1-0.3,2.9-1c1.2-1.2,1.1-2.4,1.1-5.4
		V365h2v8.4C59.9,376.4,60,378.7,58.4,380.4L58.4,380.4z M76.2,381.7l-8.1-13.8v13.8h-1.9v-16.8h2.1l8.1,13.9v-13.9h1.9v16.8H76.2z
		 M85.3,381.7v-16.8h2v16.8H85.3z M100,381.7h-2.3l-5.8-16.8H94l4.9,14.9l5-14.9h2L100,381.7z M110.4,381.7v-16.8h9.2v1.7h-7.2v5.5
		h6.7v1.6h-6.7v6.2h7.4v1.7H110.4z M132.6,367.4c-1-0.8-2.3-1.1-3.6-0.9h-1.9v6.3h0.7c1.6,0.3,3.3-0.1,4.7-1
		C133.6,370.5,133.6,368.6,132.6,367.4L132.6,367.4z M134.4,381.7l-1.9-4.4c-1.2-2.7-1.7-3-4.2-3h-1.2v7.3h-2v-16.8h3.6
		c2.3,0,4,0,5.4,1.3c0.9,0.9,1.3,2.1,1.3,3.4c0.1,1.1-0.3,2.1-1,2.9c-0.7,0.7-1.7,1.2-2.7,1.3c0.5,0.1,1,0.3,1.4,0.7
		c0.5,0.7,1,1.4,1.3,2.3l2.2,5H134.4z M156.2,381.7v-16.8h2v16.8H156.2z M169.8,366.6v15.1h-2v-15.1h-5v-1.7h12v1.7H169.8z
		 M184.5,375.1v6.6h-2v-6.6l-5.4-10.2h2.3l4.2,7.9l4-7.9h2.2L184.5,375.1z M208.7,366.3c-3.3,0-5.4,2.7-5.4,7s2.4,7,5.5,7
		c3.2,0,5.4-3,5.4-7.2S212,366.3,208.7,366.3z M208.7,382c-4.4-0.2-7.8-3.8-7.6-8.2c0-0.2,0-0.3,0-0.5c0-5.2,3.1-8.8,7.7-8.8
		s7.5,3.6,7.5,8.6s-3.1,8.8-7.5,8.8H208.7z M223.9,366.6v5.5h6.5v1.6h-6.5v8.1h-2v-16.9h8.9v1.7H223.9z M140.6,369
		c0.1-2.5,2.2-4.5,4.7-4.4c0.1,0,0.3,0,0.4,0c1.7-0.1,3.4,0.5,4.7,1.7l-1,1.2c-1-0.8-2.3-1.3-3.6-1.3c-2.2,0-3.4,1.1-3.4,2.7
		c0,0.7,0.3,1.3,0.8,1.7c0.7,0.5,1.5,1,2.3,1.3c1.4,0.5,2.6,1.2,3.7,2.2c0.8,0.8,1.3,1.9,1.3,3c0,2.7-2.1,4.9-4.8,5
		c-0.2,0-0.4,0-0.6,0c-1.8,0-3.6-0.6-5-1.8l0.9-1.4c1.2,0.8,2.6,1.3,4.1,1.5c2.5,0,3.5-1.4,3.5-3c0-0.7-0.3-1.4-0.9-1.9
		c-0.9-0.8-2-1.4-3.1-1.8c-1.2-0.4-2.2-1.1-3.1-1.9C140.9,371,140.6,370,140.6,369z"/>
</g>
<path class="st1" d="M217.9,251c0.2-1.9-0.7-3.7-2.3-4.7c-1.2-0.6-2.6-0.8-3.9-0.8H200v23.8h12.8c3,0,4.7,0.7,4.9,3.3h0.3L217.9,251
	z M219.6,251c-0.2-1.9,0.7-3.7,2.3-4.7c1.2-0.6,2.6-0.8,3.9-0.8h11.9v23.8h-12.9c-3,0-4.7,0.7-4.8,3.3h-0.3V251z"/>
<path class="st1" d="M240.1,247.3v25.1h-18.2l-0.2,0.5c-0.3,0.8-0.9,1.5-2.9,1.5c-2,0-2.7-0.8-2.9-1.5l-0.2-0.5h-18.2v-25.1h-1.6
	v0.8l-1.6-0.5c-0.2-0.6-0.8-1.1-1.4-1.1c-0.8,0-1.5,0.7-1.5,1.5c0,0.8,0.7,1.5,1.5,1.5c0.3,0,0.7-0.1,1-0.3l2,0.6v2l-1.6-0.3
	c-0.3-0.8-1.2-1.1-2-0.8c-0.8,0.3-1.1,1.2-0.8,2c0.2,0.5,0.8,0.9,1.4,0.9c0.4,0,0.8-0.2,1.1-0.5l1.9,0.3v2.1h-1.6
	c-0.2-0.5-0.7-0.8-1.3-0.8c-0.8,0-1.5,0.6-1.5,1.5c0,0.8,0.6,1.5,1.5,1.5c0.5,0,1-0.2,1.3-0.6h1.7v2.3h-1.6
	c-0.3-0.4-0.8-0.6-1.2-0.6c-0.8,0-1.5,0.7-1.5,1.5c0,0.8,0.7,1.5,1.5,1.5c0.5,0,1-0.3,1.3-0.7h1.6v2l-1.8,0.3
	c-0.3-0.3-0.7-0.5-1.1-0.5c-0.8-0.1-1.6,0.5-1.7,1.3c-0.1,0.8,0.5,1.6,1.3,1.7c0.1,0,0.3,0,0.4,0c0.6,0,1.1-0.3,1.4-0.9l1.5-0.3v2
	l-2,0.6c-0.3-0.2-0.6-0.3-0.9-0.3c-0.8,0-1.5,0.7-1.5,1.5c0,0.8,0.7,1.5,1.5,1.5c0.7,0,1.2-0.5,1.4-1.1l1.5-0.5v2l-2.2,0.9
	c-0.2-0.2-0.5-0.2-0.8-0.2c-0.8,0-1.5,0.7-1.5,1.5c0,0.8,0.7,1.5,1.5,1.5c0.7,0,1.3-0.5,1.5-1.2l1.5-0.7v1.8h18.8
	c0.8,1.5,2.4,2.3,4.1,2.2c1.6,0.2,3.2-0.6,4.1-2h18.8v-26.9H240.1z"/>
<g>
	<path class="st1" d="M206.4,238.9c-3.8,0-6.9,0.6-6.9,1.3s3.1,1.3,6.9,1.3s6.9-0.6,6.9-1.3S210.2,238.9,206.4,238.9z M215.9,230.7
		l-4,2.7v0.3l0.9,0.4c0.2,0,0.2,0.2,0,0.3l-2.5,2.1h-0.2l-1.8-2.7v-0.4l1.2-0.2v-0.1l-3.1-4.3h-0.4l-3.1,4.3v0.3l1.2,0.2
		c0.2,0,0.2,0.2,0,0.4l-1.8,2.7h-0.1l-2.3-2.1v-0.3l0.9-0.4v-0.3l-4.1-2.7h-0.3l2.4,7.4c2.4-0.7,4.9-1,7.4-0.9
		c2.5-0.1,5,0.2,7.4,0.9l2.4-7.4L215.9,230.7z"/>
</g>
<g>
	<path class="st1" d="M218.7,288.8c-3.8,0-6.9,0.6-6.9,1.3c0,0.7,3.1,1.3,6.9,1.3s6.9-0.6,6.9-1.3
		C225.6,289.3,222.6,288.8,218.7,288.8z M228.2,280.5l-4,2.7v0.3l0.9,0.4c0.2,0,0.2,0.2,0,0.3l-2.5,2.1h-0.2l-1.8-2.7
		c-0.1-0.2,0-0.3,0-0.4l1.2-0.2v-0.3l-3.1-4.3h-0.5l-3.1,4.3v0.3l1.2,0.2c0.2,0,0.2,0.2,0,0.4l-1.8,2.7h-0.2l-2-2V284l0.9-0.4v-0.3
		l-4.1-2.7h-0.3l2.4,7.5c4.8-1.3,9.9-1.3,14.8,0l2.4-7.5L228.2,280.5z"/>
</g>
<g>
	<path class="st1" d="M231.1,238.9c-3.8,0-6.9,0.6-6.9,1.3s3.1,1.3,6.9,1.3s6.9-0.6,6.9-1.3S234.9,238.9,231.1,238.9z M240.6,230.7
		l-4,2.7v0.3l0.9,0.4c0.2,0,0.2,0.2,0,0.3l-2.5,2.1h-0.2l-1.8-2.7c-0.1-0.2,0-0.3,0-0.4l1.2-0.2v-0.1l-3.1-4.3h-0.5l-2.9,4.3v0.3
		l1.2,0.2c0.2,0,0.2,0.2,0,0.4l-1.7,2.7h-0.2l-2.3-2.1v-0.3l0.9-0.4v-0.5l-4.1-2.7H221l2.4,7.4c4.8-1.3,9.9-1.3,14.8,0l2.4-7.4
		L240.6,230.7z"/>
</g>
<g>
	<path class="st0" d="M203,249.4c0.6,0,1.1,0.1,1.5,0.5c0.3,0.3,0.5,0.7,0.5,1.1c0,1.3-1,1.9-2.2,1.9h-1.3v-0.2c0.4,0,0.4,0,0.4-0.6
		v-1.7c0-0.6,0-0.6-0.4-0.6v-0.2H203z M202.8,252c0,0.5,0,0.6,0.3,0.6s0.9-0.5,0.9-1.4s-0.6-1.5-1-1.5h-0.2c0,0,0,0,0,0.3L202.8,252
		z M209,251c0.1,0.9-0.7,1.8-1.6,1.8c-0.1,0-0.1,0-0.2,0c-0.9,0-1.7-0.7-1.8-1.6c0,0,0-0.1,0-0.1c0-1,0.7-1.8,1.7-1.8
		c0,0,0.1,0,0.1,0c0.9,0,1.7,0.7,1.7,1.6C209,250.9,209,251,209,251z M206.3,251c0,0.9,0.3,1.6,0.9,1.6s0.7-0.4,0.7-1.4
		c0-0.9-0.4-1.6-0.8-1.6c-0.4,0-0.6,0.4-0.6,1.3L206.3,251z M213.6,249.4v0.2c-0.4,0-0.4,0-0.4,0.6v1.7c0,0.6,0,0.6,0.4,0.6v0.2H212
		v-0.2c0.4,0,0.4,0,0.4-0.6v-1.9l-1,2.7h-0.3l-1-2.4v1.2c0,0.3,0,0.6,0,0.9c0,0.2,0,0.2,0.5,0.2v0.2h-1.3v-0.2c0.2,0,0.3,0,0.4-0.2
		c0-0.2,0-0.5,0-0.9v-1c0-0.7,0-0.8-0.4-0.8v-0.3h1.2l0.9,2.1l0.8-2.1H213.6z M215.3,252c0,0.6,0,0.6,0.4,0.6v0.2H214v-0.2
		c0.3,0,0.4,0,0.4-0.6v-1.7c0-0.6,0-0.6-0.4-0.6v-0.3h1.7v0.2c-0.4,0-0.4,0-0.4,0.6V252z"/>
</g>
<g>
	<path class="st0" d="M206.9,259.1h-0.5l-1.9-2.5v2c0,0.2,0.2,0.2,0.5,0.2v0.2h-1.3v-0.2c0.2,0,0.4,0,0.4-0.2c0-0.2,0-0.5,0-1v-1
		V256c0-0.1-0.2,0-0.4-0.2v-0.2h1.2l1.7,2.2v-0.7v-1c0-0.2-0.2-0.2-0.5-0.3v-0.2h1.3v0.2c-0.2,0-0.4,0-0.4,0.3c0,0.3,0,0.7,0,1
		L206.9,259.1z"/>
	<path class="st0" d="M209,259.1l-1-2.7c-0.2-0.5-0.3-0.5-0.6-0.5v-0.2h1.7v0.2h-0.3c-0.2,0-0.2,0-0.1,0.2c0.1,0.2,0.5,1.3,0.7,1.9
		c0.2-0.5,0.5-1.5,0.6-1.7c0.1-0.2,0-0.4-0.2-0.4h-0.1v-0.2h1.3v0.2c-0.3,0-0.4,0-0.6,0.5c0,0-0.7,1.6-1.1,2.7L209,259.1z
		 M211.4,258c0,0.3,0.4,0.9,0.9,0.9c0.3,0,0.5-0.2,0.5-0.5c0,0,0,0,0,0c0-0.3-0.2-0.5-0.5-0.6c-0.4-0.2-0.9-0.5-0.9-1
		c0-0.6,0.4-1.1,1.3-1.1c0.2,0,0.3,0,0.5,0h0.3c0,0.3,0,0.5,0,0.8h-0.2c0-0.3-0.3-0.7-0.7-0.7c-0.2,0-0.4,0.2-0.5,0.4c0,0,0,0,0,0.1
		c0,0.2,0.2,0.4,0.5,0.5c0.5,0.2,0.9,0.5,0.9,1.1s-0.5,1.1-1.3,1.1c-0.2,0-0.4,0-0.6,0l-0.3-0.1l-0.2-0.9L211.4,258z"/>
</g>
<g>
	<path class="st0" d="M204.6,264.5c0,0.6,0,0.6,0.4,0.6v0.2h-1.7v-0.2c0.4,0,0.4,0,0.4-0.6v-1.7c0-0.6,0-0.6-0.4-0.6v-0.2h1.7v0.2
		c-0.3,0-0.4,0-0.4,0.6V264.5z M206.6,264.6v0.5c0.1,0,0.3,0,0.4,0c0.2,0,0.4,0,0.5-0.2c0.1-0.2,0.2-0.3,0.2-0.5h0.2
		c0,0.2-0.2,0.7-0.2,0.9h-2.7V265c0.4,0,0.4,0,0.4-0.6v-1.6c0-0.6,0-0.6-0.4-0.6v-0.2h1.7v0.2c-0.4,0-0.4,0-0.4,0.6L206.6,264.6z
		 M209.5,264.6v0.5c0.1,0,0.3,0,0.4,0c0.2,0,0.4,0,0.5-0.2c0.1-0.2,0.2-0.3,0.2-0.5h0.2c0,0.3-0.1,0.6-0.2,0.9H208V265
		c0.4,0,0.4,0,0.4-0.6v-1.6c0-0.6,0-0.6-0.4-0.6v-0.2h1.7v0.2c-0.4,0-0.4,0-0.4,0.6L209.5,264.6z M212.1,265.5
		c-0.4-0.9-0.9-2.2-1-2.7s-0.3-0.5-0.5-0.5v-0.2h1.7v0.2H212c-0.2,0-0.2,0,0,0.2c0.2,0.2,0.5,1.3,0.7,1.8c0-0.4,0.5-1.4,0.6-1.7
		c0.1-0.2,0-0.4-0.2-0.4h-0.2v-0.2h1.3v0.2c-0.3,0-0.3,0-0.6,0.5s-0.7,1.6-1,2.7L212.1,265.5z"/>
</g>
<g>
	<path class="st0" d="M226.1,249.4v0.2c-0.4,0-0.4,0-0.4,0.6v1.7c0,0.6,0,0.6,0.4,0.6v0.2h-1.6v-0.2c0.4,0,0.4,0,0.4-0.6v-1.9
		l-1,2.7h-0.3l-1-2.4v1.2c0,0.3,0,0.6,0,0.9c0,0.2,0,0.2,0.5,0.2v0.2h-1.3v-0.2c0.2,0,0.3,0,0.4-0.2c0-0.2,0-0.5,0-0.9v-1
		c0-0.7,0-0.8-0.4-0.8v-0.3h1.2l0.9,2.1l1.1-2.1H226.1z M227.9,252c0,0.6,0,0.6,0.4,0.6v0.2h-1.7v-0.2c0.4,0,0.4,0,0.4-0.6v-1.7
		c0-0.6,0-0.6-0.4-0.6v-0.3h1.7v0.2c-0.3,0-0.4,0-0.4,0.6V252z M231.7,252.8h-0.4l-1.9-2.5v1c0,0.3,0,0.7,0,1c0,0.2,0.2,0.2,0.5,0.2
		v0.2h-1.3v-0.2c0.2,0,0.3,0,0.4-0.2c0-0.3,0-0.7,0-1v-1v-0.6c-0.1-0.1-0.3-0.2-0.4-0.2v-0.2h1.2l1.7,2.2v-0.7c0-0.3,0-0.7,0-1
		c0-0.2-0.2-0.3-0.5-0.3v-0.2h1.3v0.2c-0.3,0-0.4,0-0.4,0.3c0,0.3,0,0.7,0,1L231.7,252.8z M233.9,252.5h0.2c0.2,0,0.2,0,0-0.3
		l-0.2-0.5h-0.9l-0.2,0.5c0,0.2,0,0.3,0.2,0.3h0.2v0.2H232v-0.2c0.3,0,0.3,0,0.5-0.5l1-2.7h0.4l0.3,1l0.7,1.8
		c0.2,0.5,0.3,0.5,0.5,0.5v0.2h-1.7L233.9,252.5z M233.3,251.4h0.7l-0.3-1L233.3,251.4z"/>
</g>
<g>
	<path class="st0" d="M226.1,258.2c0,0.6,0,0.6,0.5,0.6v0.2h-1.8v-0.2c0.4,0,0.5,0,0.5-0.6v-2.3c-0.3,0-0.5,0-0.6,0.2
		c-0.1,0.2,0,0.2-0.2,0.5h-0.2v-1h3v1h-0.2c0-0.2-0.1-0.4-0.2-0.5c-0.1-0.1-0.3-0.2-0.5-0.1L226.1,258.2z M228.8,258.2
		c0,0.6,0,0.6,0.4,0.6v0.2h-1.6v-0.2c0.4,0,0.4,0,0.4-0.6v-1.7c0-0.6,0-0.6-0.4-0.6v-0.2h1.7v0.2c-0.4,0-0.4,0-0.4,0.6L228.8,258.2z
		 M233.2,257.4c0.1,0.9-0.7,1.8-1.6,1.8c-0.1,0-0.1,0-0.2,0c-0.9,0-1.7-0.7-1.7-1.6c0,0,0-0.1,0-0.1c0-1,0.7-1.8,1.7-1.9
		c0,0,0.1,0,0.1,0C232.5,255.7,233.2,256.4,233.2,257.4C233.2,257.4,233.2,257.4,233.2,257.4z M230.5,257.4c0,0.9,0.3,1.6,0.9,1.6
		c0.5,0,0.7-0.4,0.7-1.4c0-0.9-0.4-1.6-0.8-1.6s-0.6,0.2-0.6,1.2L230.5,257.4z"/>
</g>
<g>
	<path class="st0" d="M227.7,261.9v0.2c-0.4,0-0.4,0-0.4,0.6v1.7c0,0.6,0,0.6,0.4,0.6v0.2h-1.6v-0.2c0.4,0,0.4,0,0.4-0.6v-1.9
		l-1,2.7h-0.3l-1-2.5v1.2c0,0.3,0,0.6,0,0.9c0,0.2,0,0.2,0.5,0.3v0.2h-1.3v-0.2c0.2,0,0.3,0,0.4-0.3c0.1-0.3,0-0.5,0-0.9v-1
		c0-0.7,0-0.7-0.4-0.8v-0.2h1.2l0.9,2.1l0.8-2.1L227.7,261.9z M228.5,262.8c0-0.6,0-0.6-0.4-0.6v-0.2h2.5v0.9h-0.2
		c0-0.2-0.1-0.4-0.2-0.5c-0.2,0-0.3,0-0.5,0c-0.2,0-0.2,0-0.2,0.2v1h0.3c0.5,0,0.5,0,0.5-0.4h0.1v1.2h-0.2c0-0.5,0-0.5-0.5-0.5h-0.3
		v1.3c0.1,0,0.3,0,0.4,0c0.2,0,0.4,0,0.5-0.2c0.1-0.2,0.2-0.3,0.3-0.5h0.2c0,0.3-0.1,0.6-0.2,0.9h-2.7v-0.2c0.4,0,0.4,0,0.4-0.6
		L228.5,262.8z M232.7,265.1h0.1c0.2,0,0.2,0,0-0.2l-0.2-0.5h-0.9v0.5c0,0.2,0,0.3,0.2,0.3h0.1v0.2h-1.2v-0.2c0.3,0,0.3,0,0.5-0.5
		l1-2.7h0.3l0.4,1c0.2,0.6,0.5,1.2,0.6,1.8s0.3,0.5,0.5,0.5v0.2h-1.6L232.7,265.1z M232,264h0.7l-0.3-1L232,264z"/>
</g>
<path class="st1" d="M214,307.5c0,0.8-0.6,1.4-1.4,1.4l0,0c-0.7,0.1-1.5-0.3-1.6-1.1c-0.1-0.7,0.3-1.5,1.1-1.6c0.2,0,0.4,0,0.5,0
	C213.4,306.2,214,306.8,214,307.5z M227.9,309.8c0,0.8-0.6,1.4-1.4,1.4l0,0c-0.8,0-1.4-0.6-1.4-1.4c0-0.8,0.6-1.4,1.4-1.4
	C227.3,308.4,227.9,309,227.9,309.8C227.9,309.8,227.9,309.8,227.9,309.8z M220.1,210.7c0,0.8-0.6,1.4-1.3,1.4
	c-0.8,0-1.4-0.6-1.4-1.3c0-0.8,0.6-1.4,1.3-1.4c0,0,0,0,0,0C219.4,209.3,220,209.9,220.1,210.7C220.1,210.7,220.1,210.7,220.1,210.7
	z M252.7,223.5c0,0.8-0.7,1.3-1.4,1.3c0,0,0,0,0,0c-0.7,0-1.3-0.7-1.3-1.4c0,0,0,0,0,0c0-0.7,0.7-1.3,1.4-1.3c0,0,0,0,0,0
	C252.1,222.1,252.7,222.8,252.7,223.5C252.7,223.5,252.7,223.5,252.7,223.5z M183.9,282.4c0.5,0.7,0.8,1.6,0.8,2.4
	c0,1-0.3,1.7-2,2.9l-4.9,3.6l-0.9-1.3l5.1-3.7c0.9-0.6,1.3-1.1,1.3-1.7c0-0.5-0.2-1-0.5-1.4c-0.4-0.6-1-0.9-1.7-0.9
	c-0.5,0-1,0.3-2,1l-4.7,3.1l-0.9-1.3l4.4-3c0.9-0.8,2-1.3,3.1-1.5C182.2,280.7,183.3,281.4,183.9,282.4z M168.1,272.7l9.4-3.3
	l0.5,1.4l-5.4,6.6l6.8-2.7l0.5,1.4l-9.3,3.6l-0.5-1.4l5.4-6.6l-6.9,2.4L168.1,272.7z M166.7,265.2l9.9-1.5l0.2,1.6l-9.9,1.5
	L166.7,265.2z M166.4,253.3v-1.6l9.9,4v1.6l-10.1,3v-1.7l8.1-2.3L166.4,253.3z M175.4,231c-1.4,0-2.1,0.8-3,2.4l-1.2,2.1l8.8,4.8
	l0.8-1.4l-3.7-2l0.2-0.4c0.6-1.1,0.8-1.3,2.4-1.1l2.9,0.2l0.8-1.5l-3.3-0.3c-0.5-0.1-1.1-0.1-1.6,0c-0.2,0.1-0.3,0.1-0.5,0.2
	c0-0.2,0-0.4,0-0.5c0-0.3,0-0.5-0.1-0.8c-0.2-0.6-0.7-1.1-1.2-1.4C176.3,231.2,175.9,231,175.4,231z M173.6,234.1
	c0.6-1.1,1-1.5,1.6-1.5c0.3,0,0.6,0.1,0.8,0.2c0.4,0.2,0.6,0.5,0.8,0.9c0,0.2,0,0.3,0,0.5c-0.1,0.6-0.3,1.3-0.7,1.8l-0.2,0.4
	l-2.7-1.5L173.6,234.1z M186.3,217.1l1.3-1l6.1,7.9l-1.3,1L186.3,217.1z M191.8,213.1l6.5-3.4l0.6,1.2l-2.5,1.3l4,7.5l-1.4,0.8
	l-4-7.6l-2.5,1.3L191.8,213.1z M207.9,206.7l1.7-0.4l-1.4,6.7l1.1,3.8l-1.5,0.3l-1-3.8l-4.8-4.9l1.6-0.5l3.4,3.6L207.9,206.7z
	 M238.4,220.3l4.9-8.6l4.8,2.8l-0.7,1.2l-3.4-2l-1.4,2.4l3.2,1.9l-0.7,1.2l-3.2-1.9l-2.3,3.9L238.4,220.3z M263.9,242.5l3.6-4.3
	l0.6,1.7l-2.7,3.1l4,0.9l0.5,1.6l-5.4-1.3l-3.9,4.7l-0.5-1.7l3-3.4l-4.4-1l-0.5-1.7L263.9,242.5z M261.1,252.3l9.9-0.8l0.5,5.4h-1.4
	l-0.3-3.9l-2.7,0.2l0.3,3.7H266l-0.3-3.7l-4.5,0.3L261.1,252.3z M265.3,261.2c-1.1,0-2.1,0.3-3,0.9c-1.1,0.8-1.8,2.2-1.8,3.6
	c0.2,2.8,2.6,4.9,5.4,4.7c0.1,0,0.1,0,0.2,0c1.1,0,2.1-0.3,3-0.9c1.1-0.8,1.8-2.2,1.8-3.6c-0.2-2.8-2.6-4.9-5.4-4.7
	C265.4,261.2,265.4,261.2,265.3,261.2z M266.1,268.8c-1.9,0-4.2-1-4.2-3c0-0.9,0.4-1.8,1.1-2.3c0.7-0.5,1.5-0.7,2.3-0.7
	c1.4-0.1,2.8,0.5,3.7,1.6c0.9,1.2,0.6,2.9-0.6,3.8c0,0-0.1,0-0.1,0.1c-0.7,0.4-1.4,0.6-2.2,0.6H266.1z M259.7,228
	c-1.1,0-2.2,0.4-3.1,1c-1.6,0.9-2.6,2.4-2.7,4.2c0,0.8,0.2,1.7,0.7,2.4c0.8,1.3,2.2,2.1,3.7,2.1c1.1,0,2.2-0.4,3.1-1
	c1.6-0.8,2.6-2.4,2.7-4.2c0-0.8-0.3-1.7-0.7-2.4C262.6,228.8,261.2,228,259.7,228z M258.1,236.1c-0.9,0-1.8-0.4-2.3-1.2
	c-0.3-0.4-0.4-0.9-0.4-1.4c0.1-1.3,0.9-2.5,2-3.1c0.7-0.5,1.6-0.8,2.5-0.8c0.9,0,1.8,0.4,2.3,1.2c0.3,0.5,0.5,1,0.5,1.5
	c-0.1,1.3-0.8,2.4-2,3C259.9,235.8,259,236.1,258.1,236.1L258.1,236.1z M232.5,207.5c-2.3,0.1-4.2,1.7-4.6,3.9
	c-0.2,0.5-0.3,1.1-0.3,1.6c0,0.9,0.2,1.8,0.6,2.6c0.8,1.4,2.3,2.3,3.9,2.2c0.7,0,1.4-0.2,2.1-0.5c1.7-1.1,2.7-3,2.7-5.1
	c0-0.9-0.2-1.7-0.6-2.4C235.5,208.3,234,207.5,232.5,207.5z M232,216.4c-1,0-1.9-0.6-2.3-1.4c-0.3-0.5-0.4-1.2-0.4-1.8
	c0-1.8,1.2-4.3,3.3-4.3c1.6,0.1,2.8,1.4,2.7,3c0,0.1,0,0.1,0,0.2C235.3,213.5,234.3,216.4,232,216.4z M177.3,243.6l1.3,0.4l-1.5,5.4
	l-9.7-2.7l1.6-5.5l1.3,0.3l-1.2,4l2.7,0.7l1-3.6l1.3,0.4l-1,3.7l3,0.8L177.3,243.6z M179.8,222.8c0.6-0.9,1.6-1.4,2.7-1.5l0.2,1.3
	c-0.7,0.1-1.4,0.4-1.9,1c-0.3,0.3-0.5,0.8-0.5,1.3c0,0.3,0.1,0.6,0.4,0.8c0.7,0.6,1.9,0,2.7-0.3c0.7-0.3,1.4-0.5,2.2-0.6
	c0.7,0,1.3,0.2,1.8,0.7c0.6,0.5,1,1.3,1,2.1c0,0.9-0.4,1.7-1,2.3c-0.8,0.9-1.8,1.4-3,1.6l-0.3-1.3c0.9-0.1,1.6-0.5,2.2-1.2
	c0.3-0.3,0.5-0.8,0.5-1.2c0-0.4-0.2-0.8-0.5-1c-0.2-0.2-0.5-0.3-0.9-0.3c-0.7,0.1-1.4,0.3-2.1,0.6c-1.1,0.8-2.5,0.8-3.6,0
	c-0.6-0.5-0.9-1.2-0.9-1.9C178.8,224.3,179.1,223.4,179.8,222.8z M258.4,274.1l3.8,1.7l-0.2,0.4c-0.5,1.2-0.7,1.3-2.3,1.4h-2.9
	l-0.7,1.5h3.3c0.5,0,1.1,0,1.6-0.2l0.4-0.2v0.2c0,0.4,0.1,0.7,0.2,1c0.5,1,1.6,1.6,2.7,1.6c1.6,0,2.2-1,3-2.7l0.9-2.1l-9.1-4.1
	L258.4,274.1z M264.3,280c-0.6,0-1.2-0.4-1.5-1c0-0.2,0-0.4,0-0.6c0.1-0.6,0.2-1.2,0.5-1.7l0.2-0.4l2.9,1.3l-0.3,0.8
	C265.3,279.6,265.1,280,264.3,280L264.3,280z M253.2,283.5c-1.1,1.1-1.7,2.5-1.9,4c0.1,1.5,0.8,3,2,3.9c0.9,0.7,2,1.1,3.2,1.2
	c1.4,0,2.5-0.4,4.2-2.7l1.6-2l-7.8-6.2L253.2,283.5z M256.7,291c-0.8,0-1.7-0.4-2.3-0.9c-0.9-0.7-1.5-1.7-1.6-2.9
	c0.1-1,0.5-2,1.2-2.7l0.6-0.8l5.7,4.5l-0.4,0.5C258.8,290.3,258.1,291,256.7,291z"/>
<path class="st1" d="M275.9,258.3c0-31.5-25.5-57.1-57.1-57.2c-31.5,0-57.1,25.5-57.2,57.1c0,18.9,9.3,36.6,24.9,47.2
	c1.6,5.9,6.9,9.9,13,9.9c1.7,0,3.3-0.3,4.9-0.9c2.1,0.7,4.2,1.3,6.4,1.7c-0.6,1.7-1.4,3.3-2.3,4.8l1.2,1.2c0.3-0.2,0.7-0.3,1-0.3
	c1.2,0.1,2,1.2,1.9,2.4c-0.1,1-0.9,1.8-1.9,1.9c-1,0-1.9-0.6-2.4-1.4c-0.2,0.7-0.3,1.5-0.3,2.2c0,4.1,4.5,8.8,10.8,10.8
	c6.2-1.9,10.8-6.6,10.8-10.8c0-0.8-0.1-1.5-0.3-2.2c-0.5,0.8-1.4,1.3-2.4,1.4c-1.2-0.1-2-1.2-1.9-2.4c0.1-1,0.9-1.8,1.9-1.9
	c0.4,0,0.8,0.1,1.1,0.3l1.2-1.1c-0.7-1.4-1.2-2.9-1.6-4.4c9.9-1.2,19-5.7,25.8-13C267.6,292.9,275.9,276.1,275.9,258.3z
	 M199.6,313.8c-6.5,0-11.8-5.3-11.8-11.8c0-2,0.5-3.9,1.4-5.6l1.9,1.7c-0.6,1.2-0.9,2.6-0.9,4c0,3.6,2,6.8,5.1,8.4
	c2.1,1.2,4.2,2.2,6.5,3.1C201.1,313.7,200.3,313.8,199.6,313.8z M218.8,296.6c-2.4,0-4.9-0.2-7.2-0.7c-2.3-4.5-6.9-7.3-12-7.3
	c-1.2,0-2.4,0.2-3.6,0.5c-17-12.6-20.5-36.6-7.9-53.6c12.6-17,36.6-20.5,53.6-7.9c17,12.6,20.5,36.6,7.9,53.6
	C242.3,290.9,230.9,296.6,218.8,296.6L218.8,296.6z M227.3,297.3c-1.2,1.9-1.9,4-2,6.2c-3.4-0.9-6.6-2-9.8-3.5
	c0.7-1.1,2-1.8,3.3-1.8C221.6,298.2,224.5,297.9,227.3,297.3z M215.1,298c-0.5,0.4-0.8,0.8-1.2,1.3c-1.4-0.7-3.3-1.6-4.4-2.3
	C211.4,297.5,213.3,297.8,215.1,298z M199.6,290.2c3.9,0,7.6,2,9.8,5.2c-1.9-0.5-3.7-1.1-5.5-1.9c-1.3-0.6-2.6-0.9-4-0.9
	c-3,0-5.9,1.4-7.6,3.9c-0.8-0.4-1.5-0.8-2.2-1.3C192.1,292.1,195.7,290.2,199.6,290.2z M226.7,320.2c-2.1-0.2-3.9,1.4-4.1,3.5
	c-0.2,2.1,1.4,3.9,3.5,4.1c0.2,0,0.4,0,0.6,0c0.3,0,0.6,0,0.9,0c-0.5,3.2-4.1,6.7-8.9,8.3c-4.7-1.6-8.4-5.1-8.9-8.3
	c0.3,0,0.6,0,0.9,0c2,0.1,3.7-1.4,3.8-3.4c0-0.1,0-0.2,0-0.3c0-2.1-1.7-3.8-3.7-3.8c0.7-1.2,1.2-2.5,1.7-3.8
	c2.5,0.4,5.1,0.7,7.6,0.7c1.9,0,3.8-0.1,5.7-0.3c0.3,1.2,0.6,2.3,1,3.4L226.7,320.2z M220.1,315.6c-8.3-0.2-16.5-2.4-23.8-6.5
	c-2.6-1.4-4.3-4.1-4.3-7.1c0-1,0.2-1.9,0.5-2.9c2.1,1.8,4.3,3.4,6.6,4.8c0.3,0.2,0.6,0.3,1,0.3c1,0,1.9-0.8,1.9-1.9l0,0
	c0-0.8-0.4-1.4-1.1-1.7c-1.3-0.6-4.2-1.8-7.3-3.4c1.5-1.9,3.7-3.1,6.2-3.1c1.1,0,2.3,0.2,3.3,0.7l2.1,1.2
	c6.7,4.1,23.9,14.5,44.6,8.8C241.5,312.2,230.9,316,220.1,315.6L220.1,315.6z M252.2,302.5c-8.1,2.9-16.9,3.4-25.3,1.4
	c0.2-3.3,1.6-6.8,3.7-7.5c21.1-6.5,32.9-28.9,26.4-50s-28.9-32.9-50-26.4s-32.9,28.9-26.4,50c2.4,7.8,7.2,14.7,13.6,19.7
	c-2.3,1-4.2,2.6-5.7,4.7c-0.7-0.5-1.4-1-2.1-1.6l-0.3,0.3c0.6,0.7,1.2,1.4,1.9,2c-1.2,2-1.9,4.4-1.9,6.8v1.2
	c-24.7-18-30.2-52.7-12.2-77.4s52.7-30.2,77.4-12.2s30.2,52.7,12.2,77.4C260.3,295.3,256.5,299.2,252.2,302.5L252.2,302.5z"/>
<path class="st1" d="M340.7,182.1h279.8v279.8H340.7V182.1z"/>
<path d="M613.7,188.9v266.4H347.4V188.9H613.7 M620.5,182.1H340.7v279.8h279.8V182.1z"/>
<g>
	<path class="st0" d="M516.4,291.8l79.6,45.9v-21.4l-79.6-45.9C516.4,270.5,516.4,291.8,516.4,291.8z M529.7,268.8L596,307v-21.4
		l-66.3-38.3V268.8z M543,245.7l53,30.6V255l-53-30.6V245.7z M556.2,201.3v21.4l39.8,23v-21.4C596.1,224.3,556.2,201.3,556.2,201.3z
		"/>
</g>
<g>
	<path class="st0" d="M368.2,328.2h1.8c0.3,0.9,0.6,1.8,1,2.7c0.6,1.6,1.4,3.1,2.3,4.5c1.4,1.2,3.3,1.9,5.2,1.8
		c3.4,0.4,6.4-2,6.8-5.4c0-0.4,0-0.7,0-1.1c0-3.9-2.9-5.6-6.1-7.2l-1.5-0.7c-5.4-2.7-8.6-5.1-8.6-10.5c0-6.2,5.6-9.9,13.1-9.9
		c1.8,0,3.5,0.2,5.2,0.5l2.4,0.3l0.3,8.1h-1.6c-0.3-0.9-0.6-1.8-0.9-2.7c-0.5-1.3-1.1-2.5-1.9-3.6c-1.3-1-2.9-1.5-4.5-1.5
		c-3-0.3-5.6,1.8-6,4.7c0,0.3,0,0.6,0,0.8c0,3.6,1.8,5.6,6.6,7.9l2.3,1.2c2.1,1,4,2.3,5.6,4c1.4,1.7,2.2,3.8,2.1,6.1
		c0,6.5-5.5,10.4-13.5,10.4c-2.1,0-4.2-0.3-6.2-0.7l-2.9-0.7L368.2,328.2z M413.2,338.7c-2.1,0.1-4-1-5-2.9l-1.8,0.9
		c-1.6,1-3.5,1.6-5.4,1.7c-1.6,0.1-3.2-0.4-4.4-1.5c-1.1-0.9-1.7-2.3-1.6-3.7c0-1.9,1.1-3.7,2.9-4.5c2.8-1.2,5.8-2.2,8.8-2.9
		l1.2-0.3v-5c0-3-1.7-4.3-4.4-4.3c-0.9,0-1.8,0.2-2.7,0.6l-0.3,2.9l-4.2,1.3c-0.5-0.1-0.9-0.6-0.9-1.1c0-0.7,0.4-1.3,1.5-2.2
		c2.7-2.3,6-3.8,9.6-4.3c2.2-0.2,4.3,0.4,6.1,1.6c1.1,1.1,1.7,2.7,1.6,4.3l-0.4,14.1l4.3,2.7L413.2,338.7z M404.3,327.9
		c-2.3,0.7-3.3,1.6-3.3,3.8c-0.3,1.9,1.1,3.7,3,4c0.2,0,0.4,0,0.5,0c1.2,0.1,2.3-0.4,3.1-1.3v-7.6L404.3,327.9z M421.9,301.9
		c0.8,0,1.6,0.3,2.2,0.9c0.6,0.6,0.9,1.4,0.9,2.2c0,0.8-0.3,1.6-0.9,2.2c-0.6,0.6-1.4,0.9-2.2,0.9c-1.7,0-3.1-1.4-3.1-3.1
		C418.8,303.3,420.2,301.9,421.9,301.9z M420.1,316.4v-0.2l9.8-3.1h0.3v21.9l2.9,2.7v0.2h-12.6v-0.2l3.1-2.7v-16.4L420.1,316.4z
		 M431.5,301.9c1.7,0,3.1,1.4,3.1,3.1c0,1.7-1.4,3.1-3.1,3.1c0,0,0,0,0,0c-1.7,0-3.1-1.4-3.1-3.1
		C428.4,303.3,429.8,301.9,431.5,301.9z M459.3,304.7v29.9l3.7,1v0.2l-9.7,3H453l-0.2-3.2l-1.8,0.9c-1.8,1-3.8,1.6-5.8,1.7
		c-5.4,0-10-4.1-10-11.4c0-8.4,5.9-13.2,13.6-13.2c1.4,0,2.8,0.2,4.1,0.5v-9.8l-3.5-1.9v-0.2l9.8-2.7h0.3L459.3,304.7z M452.7,322.7
		c0-4.9-1.3-7.9-4.6-7.9c-1.8,0-3.5,1.1-4.3,2.7c-1.2,2.3-1.8,4.8-1.6,7.4c0,6.4,2.9,10.4,7,10.4c1.3,0,2.6-0.5,3.6-1.4V322.7z
		 M364.9,385.2V385l5.1-3v-28.7l-5.1-3v-0.2h18.3c8.1,0,11.8,2.7,11.8,8.1c-0.1,4-3.1,7.3-7,7.7c5.2,0.9,9.1,3.8,9.1,9.1
		c0,6.9-6.2,10.5-15.8,10.5c-2.3,0-5.9-0.2-7.7-0.2L364.9,385.2z M385.7,353.2c-1.7-1.2-3.7-1.8-5.7-1.6c-1,0-2,0.1-3,0.3V366
		c0.7,0,1.5,0,2.2,0c4.4,0,8.6-1.5,8.6-7.5C387.9,356.5,387.1,354.6,385.7,353.2L385.7,353.2z M387.2,369.4c-2-1.4-4.3-2.1-6.8-1.9
		c-1.2,0-2.3,0.1-3.4,0.2v9.3c-0.2,1.8,0.1,3.7,0.7,5.4c0.6,1.2,2.1,1.6,3.9,1.6c4.3,0.2,7.9-3.1,8.1-7.3c0-0.4,0-0.8,0-1.2
		C389.8,373.1,388.9,370.9,387.2,369.4L387.2,369.4z M427.1,383v0.2l-9.2,2.8l-0.8-0.2l-0.2-3.2l-1,0.6c-2.1,1.6-4.7,2.5-7.4,2.7
		c-4.3,0-6.3-2.3-6.3-6.8v-14.2L399,362l9.9-0.2v16.8c-0.2,2.1,1.3,4,3.4,4.2c0.2,0,0.5,0,0.7,0c1.5,0,2.8-0.6,3.8-1.7V365l-4.5-2.7
		v-0.2l11.2-0.2v20.4L427.1,383z M431.2,377.9c0.2,0.7,0.5,1.4,0.8,2c0.4,1.1,0.9,2.2,1.6,3.2c1,0.9,2.2,1.3,3.6,1.3
		c2.5,0,4.1-1.3,4.1-3.6s-0.9-2.9-3.9-4.5l-2.7-1.5c-2.8-1.2-4.6-3.9-4.6-6.9c0-4.4,4.2-6.9,9.5-6.9c2.2-0.1,4.3,0.3,6.3,1.2
		l0.2,5.9h-1.6c-0.2-0.7-0.4-1.3-0.7-2c-0.4-1.1-1-2-1.7-2.9c-0.8-0.6-1.8-0.9-2.9-0.8c-2.3,0-3.6,1.3-3.6,3.2
		c0,0.9,0.3,1.7,0.8,2.4c0.9,1,2,1.7,3.1,2.3l1.9,1.1c1.6,0.8,3,1.8,4.2,3.1c0.8,1.1,1.3,2.4,1.2,3.8c0,2.1-1,4.1-2.7,5.4
		c-2.1,1.5-4.6,2.2-7.2,2.1c-1.6,0-3.1-0.2-4.6-0.6c-0.9-0.3-1.8-0.6-2.7-1l-0.3-6.1L431.2,377.9z M449.3,363.8v-0.2l9.8-3.1h0.3
		v21.9l2.9,2.7v0.2h-12.6v-0.2l3.1-2.7V366L449.3,363.8z M453.1,348.6c1.5-1.5,3.9-1.6,5.5-0.1s1.6,3.9,0.1,5.5l0,0
		c-1.6,1.5-4,1.5-5.6,0c-0.7-0.7-1.1-1.7-1-2.7C452,350.3,452.4,349.3,453.1,348.6z M464.4,363.8v-0.2l9.6-3.1h0.3v3.7l1.6-0.9
		c2-1.4,4.3-2.2,6.7-2.5c4.9,0,6.8,2.7,6.8,7.3v14.2l3.1,2.7v0.2h-12.7V385l2.9-2.7v-14.1c0.1-2.1-1.5-4-3.6-4.2c-0.2,0-0.5,0-0.7,0
		c-0.9-0.1-1.9,0.1-2.7,0.6c-0.5,0.3-1,0.6-1.5,1v16.6l2.9,2.7v0.2h-12.4V385l3.1-2.7V366L464.4,363.8z M514.7,370.4l-14.2-0.5
		c-0.3,4.6,1.5,11.7,8.1,11.7c1.4,0.1,2.7-0.3,4-0.9c0.9-0.5,1.8-1.2,2.5-1.9l0.6,1.3c-2.3,3.5-6.2,5.7-10.4,5.8
		c-6.1,0.2-11.1-4.6-11.3-10.7c0-0.4,0-0.7,0-1.1c-0.4-6.9,4.9-12.7,11.7-13.1c0.2,0,0.4,0,0.6,0c2.5-0.2,4.9,0.7,6.7,2.3
		c1.6,1.6,2.5,3.9,2.4,6.2L514.7,370.4z M509.4,368.8c0.1-4.3-1.5-6.6-4.1-6.6c-2.6,0-4.3,3-4.6,6.6H509.4z M520.5,377.9
		c0.2,0.7,0.5,1.4,0.8,2c0.4,1.1,0.9,2.2,1.6,3.2c1,0.9,2.2,1.3,3.6,1.3c2.5,0,4.1-1.3,4.1-3.6s-1-2.9-3.9-4.5l-2.7-1.5
		c-2.8-1.2-4.6-3.9-4.6-6.9c0-4.4,4.2-6.9,9.5-6.9c2.2-0.1,4.3,0.3,6.3,1.2l0.2,5.9h-1.6c-0.2-0.7-0.4-1.3-0.7-2
		c-0.4-1.1-1-2-1.7-2.9c-0.8-0.6-1.8-0.9-2.8-0.8c-2.4,0-3.6,1.3-3.6,3.2c0,0.9,0.3,1.7,0.8,2.4c0.9,1,2,1.7,3.1,2.3l2,1.1
		c1.6,0.8,3,1.8,4.2,3.1c0.8,1.1,1.2,2.4,1.2,3.8c0.1,2.1-0.9,4.1-2.5,5.4c-2.1,1.5-4.6,2.2-7.2,2.1c-1.5,0-3.1-0.2-4.6-0.6
		c-0.9-0.3-1.8-0.6-2.7-1l-0.4-6.2L520.5,377.9z M541.6,377.9c0.2,0.7,0.5,1.3,0.8,2c0.4,1.1,0.9,2.2,1.6,3.2c1,0.9,2.2,1.3,3.6,1.3
		c2.5,0,4.1-1.3,4.1-3.6s-1-2.9-3.7-4.5l-2.7-1.5c-2.8-1.1-4.6-3.9-4.6-6.9c0-4.4,4.2-6.9,9.5-6.9c2.2-0.1,4.3,0.3,6.3,1.2l0.2,5.9
		H555c-0.2-0.7-0.4-1.3-0.7-2c-0.4-1.1-1-2-1.7-2.9c-0.8-0.6-1.9-0.9-2.9-0.8c-2.3,0-3.6,1.3-3.6,3.2c0,0.9,0.3,1.7,0.8,2.4
		c0.9,1,2,1.7,3.1,2.3l2,1.1c1.6,0.8,3,1.8,4.1,3.1c0.8,1.1,1.3,2.4,1.2,3.8c0,2.1-0.9,4.1-2.5,5.4c-2.1,1.5-4.6,2.2-7.2,2.1
		c-1.6,0-3.1-0.2-4.6-0.6c-0.9-0.3-1.8-0.6-2.7-1l-0.5-6.1L541.6,377.9z M368.2,423.1h1.8c0.3,1,0.6,1.9,1,2.9
		c0.6,1.5,1.4,2.9,2.3,4.3c1.4,1.2,3.3,1.9,5.2,1.8c3.4,0.4,6.4-2,6.8-5.4c0-0.4,0-0.7,0-1.1c0-3.9-2.9-5.6-6.1-7.2l-1.5-0.7
		c-5.4-2.7-8.6-5.1-8.6-10.5c0-6.2,5.6-9.9,13.1-9.9c1.8,0,3.5,0.2,5.2,0.5l2.4,0.3l0.3,8.3h-1.6c-0.3-0.9-0.6-1.8-0.9-2.7
		c-0.5-1.2-1.1-2.4-1.9-3.5c-1.3-1-2.9-1.5-4.5-1.5c-3-0.3-5.6,1.8-6,4.7c0,0.3,0,0.6,0,0.8c0,3.6,1.8,5.5,6.6,7.9l2.3,1.2
		c2.1,1,4,2.3,5.6,4c1.4,1.6,2.1,3.7,2.1,5.8c0,6.5-5.5,10.4-13.5,10.4c-2.1,0-4.2-0.3-6.2-0.7l-2.9-0.7L368.2,423.1z M415.2,414
		c-0.5,0.6-1.1,1-1.9,1.2l-5.8-5.4c-3.8,0.4-5.6,4.6-5.6,9.2s2.4,10.1,7.7,10.2c2.2,0.1,4.3-0.8,5.7-2.5l0.7,1.2
		c-2.2,3.3-6,5.3-10,5.4c-5.9,0-10.8-4.8-10.8-10.7c0-0.3,0-0.6,0-1c-0.3-7,5.1-12.9,12.1-13.3c0.4,0,0.8,0,1.2,0
		c4.8,0,7.6,2.1,7.6,3.6C416.1,412.7,415.8,413.5,415.2,414z M416.8,397.3v-0.3l9.8-2.7h0.3v17.5l1.4-0.9c1.9-1.4,4.1-2.3,6.5-2.7
		c4.9,0,6.8,2.7,6.8,7.3v14.2l3.2,2.7v0.2h-12.5v-0.2l2.9-2.7v-14.1c0.1-2.1-1.5-4-3.6-4.2c-0.2,0-0.5,0-0.7,0
		c-0.9-0.1-1.9,0.1-2.7,0.6c-0.5,0.3-1,0.6-1.5,1v16.6l2.9,2.7v0.2h-12.4v-0.2l3-2.7v-30.6L416.8,397.3z M459.5,408.3
		c6.5-0.5,12.2,4.4,12.7,10.9c0,0.4,0,0.9,0,1.3c0.2,6.8-5.1,12.5-12,12.7c-0.3,0-0.7,0-1,0c-6.5,0.5-12.2-4.3-12.7-10.8
		c0-0.5-0.1-1.1,0-1.6c-0.1-6.8,5.4-12.4,12.2-12.5C459,408.3,459.3,408.3,459.5,408.3z M453.8,419.4c0,6.5,2,12.6,6.4,12.6
		c3.3,0,4.8-4.3,4.8-9.9c0-6.4-2.2-12.6-6.6-12.6C455.3,409.5,453.8,413.9,453.8,419.4z M488.2,408.3c6.5-0.5,12.2,4.4,12.7,10.9
		c0,0.4,0,0.9,0,1.3c0.2,6.8-5.1,12.5-12,12.7c-0.3,0-0.7,0-1,0c-6.5,0.6-12.2-4.2-12.7-10.7c-0.1-0.6-0.1-1.2,0-1.7
		c-0.1-6.8,5.4-12.4,12.2-12.5C487.7,408.3,488,408.3,488.2,408.3z M482.6,419.4c0,6.5,2,12.6,6.4,12.6c3.3,0,4.8-4.3,4.8-9.9
		c0-6.4-2.2-12.6-6.6-12.6C484,409.5,482.6,413.9,482.6,419.4z M515.6,432.4v0.2h-13v-0.2l3.1-2.7v-30.6l-3.6-1.8v-0.3l9.8-2.7h0.3
		v35.4L515.6,432.4z"/>
</g>
</svg>
