<?xml version="1.0" encoding="UTF-8"?>
<svg width="1200pt" height="1200pt" version="1.1" viewBox="0 0 1200 1200" xmlns="http://www.w3.org/2000/svg">
 <path d="m887.96 775.55c1.5859-4.8477 0.69531-10.223-2.5938-14.785l-234.96-373.78c-1.3438-3.2773-4.668-9.9609-12.086-9.9609-2.7344 0-11.578 1.1289-11.578 15.395v371.52c0 0.5625 0.12109 1.0547 0.16797 1.5977h-21.145c0.035157-0.53906 0.16797-1.0547 0.16797-1.5977l0.003906-468.38c0-14.734-9.8398-15.469-11.82-15.469-7.9805 0-11.473 7.668-12.203 9.3594l-267.67 470.88c-3.3125 5.1133-3.9961 10.57-2.2812 15.371-1.8945 4.8242-1.3906 10.332 1.7539 15.59l90.602 150.84c5.207 8.6992 16.777 15.254 26.914 15.254h337.55c10.141 0 21.719-6.5391 26.914-15.254l90.602-150.84c3.168-5.2891 3.6484-10.895 1.668-15.742zm-240.83-11.602v-343.84l217.16 345.43-215.86-0.003907c-0.71094-0.23828-1.3086-0.81641-1.3086-1.5938zm-61.598-439.66v439.66c0 0.76953-0.60156 1.3555-1.3086 1.5977l-249.52-0.003907zm63.41 461.86h216.62l-87.359 145.52c-1.5703 2.5781-6.4062 5.3398-9.4336 5.3398h-337.55c-3.0234 0-7.8711-2.7617-9.4336-5.3398l-87.359-145.52z"/>
 <path d="m702.79 344.41c6.8516 1.043 12.504 0.50391 23.219 0.50391 67.836-0.035156 92.375-44.039 93.371-45.973 4.0547-7.9062 2.0156-13.402 0.44531-15.973-3.4922-5.7109-10.668-7.7773-18.77-4.8594-0.16797 0.058594-16.43 5.8555-36.277 5.8555-16.262 0-29.867-3.8867-40.402-11.566-37.031-26.988-73.262-29.652-74.785-29.746l-1.4531-0.046875c-12 0-21.371 9.4062-21.371 21.422v103.49c-0.023437-0.003906 33.555-29.57 76.023-23.105zm-55.656-15.898v-64.488c0-0.66016 0.35938-1.0312 1.1172-1.0312 0.32422 0.023437 31.824 2.3398 64.117 25.883 14.102 10.273 31.754 15.492 52.43 15.492 10.246 0 19.668-1.3086 27.086-2.8086-10.621 10.586-31.129 24.156-65.125 22.957-36.848-1.2969-57.559-6.707-79.625 3.9961z"/>
</svg>
